<?xml version="1.0" encoding="UTF-8"?><svg xmlns="http://www.w3.org/2000/svg" viewBox="0 0 248.42 250"><defs><style>.d{fill:#66b1e2;}.e{fill:#ededed;}.f{fill:#ffcc05;}.g{fill:#06405c;}</style></defs><g id="a"/><g id="b"><g id="c"><g><path class="d" d="M0,36.95H248.37V230.07c0,11-8.93,19.93-19.93,19.93H19.93c-11,0-19.93-8.93-19.93-19.93V36.95H0Z"/><path class="g" d="M248.42,18.4v18.4H.05V18.4C.05,8.24,8.28,0,18.45,0H230.03c10.16,0,18.4,8.24,18.4,18.4h0Z"/><path class="g" d="M92.04,110.39c-1.15,0-2.26-.43-3.11-1.21l-21.53-19.75c-1.88-1.7-2.96-4.11-2.96-6.64s1.08-4.95,2.96-6.64l21.53-19.75c1.21-1.11,2.92-1.49,4.49-1,1.57,.49,2.75,1.79,3.11,3.39,.36,1.6-.17,3.28-1.38,4.39l-21.51,19.75,21.53,19.47c1.4,1.28,1.87,3.3,1.17,5.07-.69,1.77-2.4,2.93-4.31,2.92h0Z"/><path class="g" d="M156.43,110.39c-1.9,0-3.6-1.16-4.29-2.93-.69-1.77-.22-3.78,1.18-5.06l21.53-19.75-21.53-19.47c-1.21-1.11-1.74-2.78-1.38-4.39,.36-1.6,1.54-2.9,3.11-3.39,1.57-.49,3.28-.11,4.49,1l21.53,19.75c1.88,1.69,2.96,4.11,2.96,6.64s-1.08,4.95-2.96,6.64l-21.53,19.75c-.85,.78-1.96,1.21-3.11,1.21h0Z"/><path class="g" d="M110.44,110.39c-1.66,0-3.18-.89-4-2.34-.82-1.44-.79-3.21,.06-4.63l27.6-46c1.33-2.13,4.12-2.79,6.27-1.5,2.15,1.29,2.87,4.07,1.61,6.24l-27.6,46c-.83,1.39-2.33,2.23-3.95,2.23h0Z"/><path class="e" d="M41.14,133.39c0,2.54-2.06,4.6-4.6,4.6s-4.6-2.06-4.6-4.6,2.06-4.6,4.6-4.6,4.6,2.06,4.6,4.6h0Z"/><path class="e" d="M41.14,151.79c0,2.54-2.06,4.6-4.6,4.6s-4.6-2.06-4.6-4.6,2.06-4.6,4.6-4.6,4.6,2.06,4.6,4.6h0Z"/><path class="e" d="M41.14,170.18c0,2.54-2.06,4.6-4.6,4.6s-4.6-2.06-4.6-4.6,2.06-4.6,4.6-4.6,4.6,2.06,4.6,4.6h0Z"/><path class="e" d="M41.14,188.58c0,2.54-2.06,4.6-4.6,4.6s-4.6-2.06-4.6-4.6,2.06-4.6,4.6-4.6,4.6,2.06,4.6,4.6h0Z"/><path class="e" d="M41.14,206.98c0,2.54-2.06,4.6-4.6,4.6s-4.6-2.06-4.6-4.6,2.06-4.6,4.6-4.6,4.6,2.06,4.6,4.6h0Z"/><path class="e" d="M41.14,225.38c0,2.54-2.06,4.6-4.6,4.6s-4.6-2.06-4.6-4.6,2.06-4.6,4.6-4.6,4.6,2.06,4.6,4.6h0Z"/><path class="e" d="M100.93,137.99H54.94c-2.54,0-4.6-2.06-4.6-4.6s2.06-4.6,4.6-4.6h45.99c2.54,0,4.6,2.06,4.6,4.6s-2.06,4.6-4.6,4.6h0Z"/><path class="e" d="M123.93,174.78H54.94c-2.54,0-4.6-2.06-4.6-4.6s2.06-4.6,4.6-4.6H123.93c2.54,0,4.6,2.06,4.6,4.6s-2.06,4.6-4.6,4.6h0Z"/><path class="e" d="M110.13,211.58H54.94c-2.54,0-4.6-2.06-4.6-4.6s2.06-4.6,4.6-4.6h55.19c2.54,0,4.6,2.06,4.6,4.6s-2.06,4.6-4.6,4.6h0Z"/><path class="e" d="M142.33,156.38H54.94c-2.54,0-4.6-2.06-4.6-4.6s2.06-4.6,4.6-4.6h87.39c2.54,0,4.6,2.06,4.6,4.6s-2.06,4.6-4.6,4.6h0Z"/><path class="e" d="M82.54,193.18h-27.6c-2.54,0-4.6-2.06-4.6-4.6s2.06-4.6,4.6-4.6h27.6c2.54,0,4.6,2.06,4.6,4.6s-2.06,4.6-4.6,4.6h0Z"/><path class="e" d="M77.94,229.98h-23c-2.54,0-4.6-2.06-4.6-4.6s2.06-4.6,4.6-4.6h23c2.54,0,4.6,2.06,4.6,4.6s-2.06,4.6-4.6,4.6h0Z"/><path class="e" d="M133.13,137.99h-13.8c-2.54,0-4.6-2.06-4.6-4.6s2.06-4.6,4.6-4.6h13.8c2.54,0,4.6,2.06,4.6,4.6s-2.06,4.6-4.6,4.6h0Z"/><path class="e" d="M114.73,193.18h-13.8c-2.54,0-4.6-2.06-4.6-4.6s2.06-4.6,4.6-4.6h13.8c2.54,0,4.6,2.06,4.6,4.6s-2.06,4.6-4.6,4.6h0Z"/><path class="e" d="M129.02,220.92h45.99c2.54,0,4.6,2.06,4.6,4.6s-2.06,4.6-4.6,4.6h-45.99c-2.54,0-4.6-2.06-4.6-4.6s2.06-4.6,4.6-4.6h0Z"/><path class="e" d="M133.61,184.12h68.99c2.54,0,4.6,2.06,4.6,4.6s-2.06,4.6-4.6,4.6h-68.99c-2.54,0-4.6-2.06-4.6-4.6s2.06-4.6,4.6-4.6h0Z"/><path class="e" d="M157.34,147.32h55.19c2.54,0,4.6,2.06,4.6,4.6s-2.06,4.6-4.6,4.6h-55.19c-2.54,0-4.6-2.06-4.6-4.6s2.06-4.6,4.6-4.6h0Z"/><path class="e" d="M125.14,202.52h87.39c2.54,0,4.6,2.06,4.6,4.6s-2.06,4.6-4.6,4.6H125.14c-2.54,0-4.6-2.06-4.6-4.6s2.06-4.6,4.6-4.6h0Z"/><path class="e" d="M175,165.72h27.6c2.54,0,4.6,2.06,4.6,4.6s-2.06,4.6-4.6,4.6h-27.6c-2.54,0-4.6-2.06-4.6-4.6s2.06-4.6,4.6-4.6h0Z"/><path class="e" d="M150.91,128.93h23c2.54,0,4.6,2.06,4.6,4.6s-2.06,4.6-4.6,4.6h-23c-2.54,0-4.6-2.06-4.6-4.6s2.06-4.6,4.6-4.6h0Z"/><path class="e" d="M96.82,220.92h13.8c2.54,0,4.6,2.06,4.6,4.6s-2.06,4.6-4.6,4.6h-13.8c-2.54,0-4.6-2.06-4.6-4.6s2.06-4.6,4.6-4.6h0Z"/><path class="e" d="M142.81,165.72h13.8c2.54,0,4.6,2.06,4.6,4.6s-2.06,4.6-4.6,4.6h-13.8c-2.54,0-4.6-2.06-4.6-4.6s2.06-4.6,4.6-4.6h0Z"/><circle class="f" cx="23.55" cy="18.42" r="7.72"/><circle class="f" cx="44.83" cy="18.42" r="7.72"/><circle class="f" cx="66.12" cy="18.42" r="7.72"/></g></g></g></svg>