<?xml version="1.0" encoding="UTF-8"?><svg xmlns="http://www.w3.org/2000/svg" viewBox="0 0 240.14 240.14"><defs><style>.d{fill:#66b1e2;}.e{fill:#ededed;}.f{fill:#ffcc05;}.g{fill:#06405c;}</style></defs><g id="a"/><g id="b"><g id="c"><g><path class="d" d="M240.14,24.76v49.12c0,13.65-11.11,24.76-24.76,24.76h-68l-22.78,19.19c-1.31,1.11-2.92,1.66-4.53,1.66h0c-1.61,0-3.22-.55-4.53-1.66l-22.78-19.19H24.76c-13.65,0-24.76-11.11-24.76-24.76V24.76C0,11.11,11.11,0,24.76,0H215.38c13.65,0,24.76,11.11,24.76,24.76h0Z"/><path class="d" d="M240.14,227.53v5.73c0,3.79-3.08,6.87-6.87,6.87h-68.92c-3.79,0-6.87-3.08-6.87-6.87v-5.73c0-22.78,18.54-41.32,41.33-41.32s41.34,18.53,41.34,41.32h0Z"/><path class="f" d="M198.89,138.75c13.12,.02,23.73,10.68,23.71,23.8-.03,13.12-10.68,23.73-23.8,23.7-13.12-.03-23.73-10.68-23.71-23.79,.03-13.12,10.68-23.73,23.8-23.7h0Z"/><path class="d" d="M82.66,227.53v5.73c0,3.79-3.08,6.87-6.87,6.87H6.87c-3.8,0-6.87-3.08-6.87-6.87v-5.73c0-22.78,18.54-41.32,41.33-41.32s41.33,18.53,41.33,41.32h0Z"/><path class="f" d="M41.38,138.75c13.12,.02,23.73,10.68,23.71,23.8-.03,13.12-10.68,23.73-23.8,23.7-13.12-.03-23.73-10.68-23.71-23.79,.03-13.12,10.68-23.73,23.8-23.7h0Z"/><path class="g" d="M165.03,226.43v13.71H75.11v-13.13c0-24.75,19.77-45.29,44.51-45.53,24.99-.24,45.41,20.01,45.41,44.94h0Z"/><path class="f" d="M120.14,129.84c14.27,.03,25.82,11.62,25.79,25.88-.03,14.27-11.62,25.81-25.89,25.78-14.27-.03-25.82-11.62-25.79-25.88,.03-14.27,11.62-25.81,25.89-25.78h0Z"/><path class="e" d="M212,32.9c0,3.88-3.15,7.04-7.04,7.04h-30.03c-3.88,0-7.04-3.15-7.04-7.04s3.15-7.04,7.04-7.04h30.03c3.88,0,7.04,3.15,7.04,7.04h0Z"/><path class="e" d="M153.83,32.9c0,3.88-3.15,7.04-7.04,7.04H35.18c-3.88,0-7.04-3.15-7.04-7.04s3.15-7.04,7.04-7.04h111.62c3.88,0,7.04,3.15,7.04,7.04h0Z"/><path class="e" d="M212,65.73c0,3.88-3.15,7.04-7.04,7.04H114.39c-3.88,0-7.04-3.15-7.04-7.04s3.15-7.04,7.04-7.04h90.57c3.88,0,7.04,3.15,7.04,7.04h0Z"/><path class="e" d="M86.48,72.77H35.18c-3.89,0-7.04-3.15-7.04-7.04s3.15-7.04,7.04-7.04h51.3c3.89,0,7.04,3.15,7.04,7.04s-3.15,7.04-7.04,7.04h0Z"/></g></g></g></svg>