<?xml version="1.0" encoding="UTF-8"?><svg xmlns="http://www.w3.org/2000/svg" viewBox="0 0 268.82 250"><defs><style>.d{fill:#66b1e2;}.e{fill:#ededed;}.f{fill:#ffcc05;}.g{fill:#1f7aa9;}.h{fill:#06405c;}</style></defs><g id="a"/><g id="b"><g id="c"><g><path class="d" d="M243.07,42.23V197.72c0,1.36-1.06,2.47-2.42,2.57-36.65,2.56-70.86,19.14-95.55,46.2-1.58,1.73-4.47,.61-4.47-1.74V99.18c0-.52,.16-1.03,.45-1.46,22.68-33.29,59.11-54.59,99.16-58.06,1.51-.13,2.82,1.05,2.82,2.57Zm-213.96-2.55c39.89,3.76,76.11,24.99,98.87,58.04,.3,.43,.46,.95,.46,1.47V244.75c0,2.35-2.89,3.48-4.47,1.74-24.72-27.09-58.98-43.68-95.68-46.2-1.36-.09-2.42-1.21-2.42-2.57l.39-155.47c0-1.52,1.32-2.7,2.84-2.56ZM0,240.69V81.04c0-1.13,.73-2.12,1.8-2.46,2.75-.86,5.59-1.76,8.45-2.59,1.65-.48,3.3,.76,3.3,2.48v127.22c.07,3.41,2.82,6.16,6.23,6.23,29.7,.04,58.3,10.45,80.99,29.21,2.19,1.81,.27,5.29-2.43,4.45-30.82-9.57-63.76-10.44-95.14-2.4C1.57,243.6,0,242.36,0,240.69Zm158.93,9.18c23.76-24.16,56.22-37.77,90.1-37.8,3.41-.07,6.16-2.82,6.23-6.23V78.66c0-1.69,1.61-2.94,3.25-2.49,2.94,.79,5.78,1.71,8.56,2.66,1.04,.35,1.74,1.34,1.74,2.44V240.7c0,1.67-1.57,2.91-3.19,2.5-35.37-8.95-72.69-6.59-106.7,6.8v-.14Z"/><g><path class="f" d="M155.79,142.67c2.33-7.78,7-14.77,13.22-20.22,11.66-9.72,19.05-24.49,19.05-40.82,0-30.32-25.27-55.2-56.37-53.65-27.6,1.17-50.15,24.49-50.93,52.09-.39,17.11,7,32.27,19.05,42.37,6.61,5.44,11.27,12.44,13.61,20.22h42.37Z"/><path class="e" d="M129.36,143.45h3.5l-15.55-57.93h1.17c1.94,0,3.89-.78,5.44-2.33,.78-.78,1.56-1.17,2.72-1.17s1.94,.39,2.72,1.17c2.72,3.11,7.39,3.11,10.11,0,.78-.78,1.56-1.17,2.72-1.17,.78,0,1.94,.39,2.72,1.17,1.56,1.56,3.11,2.33,5.44,2.33h1.17l-15.16,57.93h3.5l15.94-60.65c0-.78,0-1.56-.78-1.94s-1.56,0-1.94,.39c-.78,.78-1.56,1.17-2.33,1.17-1.17,0-1.94-.39-3.11-1.17-1.56-1.56-3.11-2.33-5.05-2.33s-3.5,.78-5.05,2.33-3.89,1.56-5.44,0c-1.17-1.56-3.11-2.33-5.05-2.33h0c-1.94,0-3.89,.78-5.05,2.33-.78,.78-1.94,1.17-3.11,1.17-.78,0-1.94-.39-2.33-1.17-.39-.39-1.17-.78-1.94-.39s-1.17,1.17-.78,1.94l15.55,60.65Z"/><g><path class="h" d="M122.36,178.44c1.94,4.67,6.61,8.16,12.05,8.16s10.11-3.5,12.05-8.16h-24.1Z"/><path class="h" d="M148.79,178.83h-28.38c-3.89,0-7-3.11-7-7v-29.55h42.37v29.55c0,3.89-3.11,7-7,7Z"/></g><g><path class="g" d="M155.4,157.06h-41.99c-2.33,0-4.28-1.94-4.28-4.28h0c0-2.33,1.94-4.28,4.28-4.28h41.99c2.33,0,4.28,1.94,4.28,4.28h0c0,2.33-1.94,4.28-4.28,4.28Z"/><path class="g" d="M155.4,170.67h-41.99c-2.33,0-4.28-1.94-4.28-4.28h0c0-2.33,1.94-4.28,4.28-4.28h41.99c2.33,0,4.28,1.94,4.28,4.28h0c0,2.33-1.94,4.28-4.28,4.28Z"/></g><g><path class="f" d="M134.41,0c-1.94,0-3.89,1.56-3.89,3.89v13.22c0,1.94,1.56,3.89,3.89,3.89s3.89-1.56,3.89-3.89V3.89c0-2.33-1.94-3.89-3.89-3.89Z"/><path class="f" d="M82.32,23.71c-1.56-1.56-3.89-1.56-5.44,0s-1.56,3.89,0,5.44l9.33,9.33c1.56,1.56,3.89,1.56,5.44,0s1.56-3.89,0-5.44l-9.33-9.33Z"/><path class="f" d="M70.26,77.36h-13.22c-1.94,0-3.89,1.56-3.89,3.89h0c0,1.94,1.56,3.89,3.89,3.89h13.22c1.94,0,3.89-1.56,3.89-3.89h0c0-1.94-1.94-3.89-3.89-3.89Z"/><path class="f" d="M86.2,124.01l-9.33,9.33c-1.56,1.56-1.56,3.89,0,5.44s3.89,1.56,5.44,0l9.33-9.33c1.56-1.56,1.56-3.89,0-5.44s-3.89-1.56-5.44,0Z"/><path class="f" d="M182.62,124.01c-1.56-1.56-3.89-1.56-5.44,0s-1.56,3.89,0,5.44l9.33,9.33c1.56,1.56,3.89,1.56,5.44,0s1.56-3.89,0-5.44l-9.33-9.33Z"/><path class="f" d="M211.77,77.36h-13.22c-1.94,0-3.89,1.56-3.89,3.89h0c0,1.94,1.56,3.89,3.89,3.89h13.22c1.94,0,3.89-1.56,3.89-3.89h0c0-1.94-1.56-3.89-3.89-3.89Z"/><path class="f" d="M186.5,23.71l-9.33,9.33c-1.56,1.56-1.56,3.89,0,5.44,1.56,1.56,3.89,1.56,5.44,0l9.33-9.33c1.56-1.56,1.56-3.89,0-5.44-1.56-1.56-3.89-1.56-5.44,0Z"/></g></g></g></g></g></svg>