<?xml version="1.0" encoding="UTF-8" standalone="no"?>
<!-- Generator: Adobe Illustrator 26.5.0, SVG Export Plug-In . SVG Version: 6.00 Build 0)  -->

<svg
   version="1.1"
   id="Layer_1"
   x="0px"
   y="0px"
   viewBox="0 0 122.8 122.8"
   xml:space="preserve"
   sodipodi:docname="Slack-mark-Monochrome-Black.svg"
   width="122.8"
   height="122.8"
   inkscape:version="1.2.2 (732a01da63, 2022-12-09)"
   xmlns:inkscape="http://www.inkscape.org/namespaces/inkscape"
   xmlns:sodipodi="http://sodipodi.sourceforge.net/DTD/sodipodi-0.dtd"
   xmlns="http://www.w3.org/2000/svg"
   xmlns:svg="http://www.w3.org/2000/svg"><defs
   id="defs62" /><sodipodi:namedview
   id="namedview60"
   pagecolor="#ffffff"
   bordercolor="#000000"
   borderopacity="0.25"
   inkscape:showpageshadow="2"
   inkscape:pageopacity="0.0"
   inkscape:pagecheckerboard="0"
   inkscape:deskcolor="#d1d1d1"
   showgrid="false"
   inkscape:zoom="3.0703704"
   inkscape:cx="61.230398"
   inkscape:cy="67.25573"
   inkscape:window-width="1350"
   inkscape:window-height="588"
   inkscape:window-x="116"
   inkscape:window-y="122"
   inkscape:window-maximized="0"
   inkscape:current-layer="Layer_1" />
<g
   id="g57"
   transform="translate(-73.6,-73.6)">
	<g
   id="g37">
		<path
   d="m 99.4,151.2 c 0,7.1 -5.8,12.9 -12.9,12.9 -7.1,0 -12.9,-5.8 -12.9,-12.9 0,-7.1 5.8,-12.9 12.9,-12.9 h 12.9 z"
   id="path33" />
		<path
   d="m 105.9,151.2 c 0,-7.1 5.8,-12.9 12.9,-12.9 7.1,0 12.9,5.8 12.9,12.9 v 32.3 c 0,7.1 -5.8,12.9 -12.9,12.9 -7.1,0 -12.9,-5.8 -12.9,-12.9 0,0 0,-32.3 0,-32.3 z"
   id="path35" />
	</g>
	<g
   id="g43">
		<path
   d="m 118.8,99.4 c -7.1,0 -12.9,-5.8 -12.9,-12.9 0,-7.1 5.8,-12.9 12.9,-12.9 7.1,0 12.9,5.8 12.9,12.9 v 12.9 z"
   id="path39" />
		<path
   d="m 118.8,105.9 c 7.1,0 12.9,5.8 12.9,12.9 0,7.1 -5.8,12.9 -12.9,12.9 H 86.5 c -7.1,0 -12.9,-5.8 -12.9,-12.9 0,-7.1 5.8,-12.9 12.9,-12.9 0,0 32.3,0 32.3,0 z"
   id="path41" />
	</g>
	<g
   id="g49">
		<path
   d="m 170.6,118.8 c 0,-7.1 5.8,-12.9 12.9,-12.9 7.1,0 12.9,5.8 12.9,12.9 0,7.1 -5.8,12.9 -12.9,12.9 h -12.9 z"
   id="path45" />
		<path
   d="m 164.1,118.8 c 0,7.1 -5.8,12.9 -12.9,12.9 -7.1,0 -12.9,-5.8 -12.9,-12.9 V 86.5 c 0,-7.1 5.8,-12.9 12.9,-12.9 7.1,0 12.9,5.8 12.9,12.9 z"
   id="path47" />
	</g>
	<g
   id="g55">
		<path
   d="m 151.2,170.6 c 7.1,0 12.9,5.8 12.9,12.9 0,7.1 -5.8,12.9 -12.9,12.9 -7.1,0 -12.9,-5.8 -12.9,-12.9 v -12.9 z"
   id="path51" />
		<path
   d="m 151.2,164.1 c -7.1,0 -12.9,-5.8 -12.9,-12.9 0,-7.1 5.8,-12.9 12.9,-12.9 h 32.3 c 7.1,0 12.9,5.8 12.9,12.9 0,7.1 -5.8,12.9 -12.9,12.9 z"
   id="path53" />
	</g>
</g>
</svg>
